<svg data-v-423bf9ae="" xmlns="http://www.w3.org/2000/svg" viewBox="0 0 378 95" class="iconLeft"><!----><!----><!----><g data-v-423bf9ae="" id="07c53a6e-91b9-4e20-ae73-5f821ee495a4" fill="white" transform="matrix(4.535147222295708,0,0,4.535147222295708,107.42312820190952,4.323811704838484)"><path d="M1.46 13.02L1.46 3.78L4.72 3.78Q6.23 3.78 6.98 4.41Q7.73 5.04 7.73 6.23L7.73 6.23Q7.73 7.04 7.29 7.60Q6.85 8.16 6.03 8.33L6.03 8.33L6.03 8.34Q6.93 8.48 7.46 9.07Q7.98 9.66 7.98 10.53L7.98 10.53Q7.98 11.72 7.13 12.37Q6.29 13.02 4.72 13.02L4.72 13.02L1.46 13.02ZM2.16 8.04L4.73 8.04Q6.99 8.04 6.99 6.23L6.99 6.23Q6.99 4.42 4.73 4.42L4.73 4.42L2.16 4.42L2.16 8.04ZM2.16 12.38L4.86 12.38Q6.03 12.38 6.64 11.90Q7.24 11.42 7.24 10.53L7.24 10.53Q7.24 9.62 6.64 9.15Q6.03 8.68 4.86 8.68L4.86 8.68L2.16 8.68L2.16 12.38ZM15.20 6.02L15.90 6.02L15.90 13.02L15.27 13.02L15.25 11.63Q14.90 12.38 14.20 12.77Q13.50 13.16 12.54 13.16L12.54 13.16Q11.40 13.16 10.71 12.52Q10.02 11.89 10.02 10.64L10.02 10.64L10.02 6.02L10.72 6.02L10.72 10.47Q10.72 12.54 12.66 12.54L12.66 12.54Q13.43 12.54 14.01 12.21Q14.59 11.87 14.90 11.30Q15.20 10.72 15.20 10.04L15.20 10.04L15.20 6.02ZM23.73 2.80L24.43 2.80L24.43 13.02L23.80 13.02L23.76 11.45Q23.46 12.25 22.78 12.71Q22.09 13.16 21.15 13.16L21.15 13.16Q19.67 13.16 18.81 12.19Q17.95 11.23 17.95 9.52L17.95 9.52Q17.95 7.81 18.81 6.85Q19.67 5.88 21.15 5.88L21.15 5.88Q22.06 5.88 22.74 6.31Q23.41 6.75 23.73 7.50L23.73 7.50L23.73 2.80ZM21.24 12.54Q22.33 12.54 23.00 11.81Q23.67 11.07 23.73 9.81L23.73 9.81L23.73 9.23Q23.66 7.97 22.99 7.23Q22.33 6.50 21.24 6.50L21.24 6.50Q20.02 6.50 19.33 7.30Q18.65 8.11 18.65 9.52L18.65 9.52Q18.65 10.93 19.33 11.74Q20.02 12.54 21.24 12.54L21.24 12.54ZM30.51 12.31Q31.56 12.31 32.16 12.74Q32.76 13.17 32.76 13.90L32.76 13.90Q32.76 14.53 32.33 15.02Q31.91 15.50 31.15 15.76Q30.39 16.03 29.43 16.03L29.43 16.03Q27.85 16.03 27.01 15.52Q26.17 15.01 26.17 14.17L26.17 14.17Q26.17 13.62 26.50 13.23Q26.84 12.84 27.43 12.67L27.43 12.67Q27.01 12.49 26.76 12.17Q26.52 11.84 26.52 11.45L26.52 11.45Q26.52 10.95 26.84 10.60Q27.17 10.25 27.73 10.09L27.73 10.09Q27.16 9.80 26.85 9.30Q26.54 8.81 26.54 8.16L26.54 8.16Q26.54 7.13 27.32 6.50Q28.10 5.88 29.39 5.88L29.39 5.88Q30.28 5.88 30.97 6.20L30.97 6.20Q31.05 5.53 31.53 5.13Q32.00 4.73 32.72 4.73L32.72 4.73L32.89 5.35Q32.23 5.35 31.85 5.64Q31.47 5.94 31.42 6.48L31.42 6.48Q32.21 7.13 32.21 8.16L32.21 8.16Q32.21 9.20 31.44 9.83Q30.66 10.46 29.39 10.46L29.39 10.46Q28.95 10.46 28.43 10.36L28.43 10.36Q27.85 10.43 27.52 10.70Q27.19 10.98 27.19 11.35L27.19 11.35Q27.19 11.80 27.57 12.05Q27.94 12.31 28.70 12.31L28.70 12.31L30.51 12.31ZM27.24 8.16Q27.24 8.95 27.82 9.41Q28.39 9.87 29.39 9.87L29.39 9.87Q30.37 9.87 30.94 9.41Q31.51 8.95 31.51 8.16L31.51 8.16Q31.51 7.38 30.94 6.92Q30.37 6.47 29.39 6.47L29.39 6.47Q28.41 6.47 27.82 6.92Q27.24 7.38 27.24 8.16L27.24 8.16ZM29.50 15.44Q30.69 15.44 31.41 15.03Q32.13 14.62 32.13 13.99L32.13 13.99Q32.13 13.48 31.67 13.20Q31.22 12.91 30.35 12.91L30.35 12.91L28.55 12.91Q27.75 12.91 27.28 13.22Q26.81 13.54 26.81 14.06L26.81 14.06Q26.81 14.70 27.51 15.07Q28.21 15.44 29.50 15.44L29.50 15.44ZM39.96 9.35Q39.96 9.59 39.93 9.81L39.93 9.81L34.37 9.81Q34.44 11.10 35.13 11.82Q35.83 12.54 36.99 12.54L36.99 12.54Q37.81 12.54 38.41 12.21Q39.00 11.87 39.27 11.26L39.27 11.26L39.86 11.56Q39.47 12.33 38.74 12.75Q38.01 13.16 36.99 13.16L36.99 13.16Q35.43 13.16 34.56 12.19Q33.68 11.23 33.68 9.52L33.68 9.52Q33.68 7.81 34.53 6.85Q35.38 5.88 36.90 5.88L36.90 5.88Q38.33 5.88 39.14 6.83Q39.96 7.78 39.96 9.35L39.96 9.35ZM36.90 6.50Q35.77 6.50 35.11 7.20Q34.45 7.91 34.37 9.18L34.37 9.18L39.30 9.18Q39.23 7.92 38.60 7.21Q37.98 6.50 36.90 6.50L36.90 6.50ZM45.42 12.00L45.67 12.57Q45.39 12.85 44.98 13.01Q44.58 13.16 44.09 13.16L44.09 13.16Q43.23 13.16 42.75 12.69Q42.27 12.22 42.27 11.27L42.27 11.27L42.27 6.62L40.87 6.62L40.87 6.02L42.27 6.02L42.27 4.27L42.97 4.07L42.97 6.02L45.60 6.02L45.60 6.62L42.97 6.62L42.97 11.17Q42.97 11.83 43.28 12.17Q43.60 12.52 44.20 12.52L44.20 12.52Q44.90 12.52 45.42 12.00L45.42 12.00ZM47.38 11.87Q47.66 11.87 47.83 12.05Q48.01 12.22 48.01 12.50L48.01 12.50Q48.01 12.78 47.83 12.96Q47.66 13.13 47.38 13.13L47.38 13.13Q47.10 13.13 46.92 12.96Q46.75 12.78 46.75 12.50L46.75 12.50Q46.75 12.22 46.92 12.05Q47.10 11.87 47.38 11.87L47.38 11.87ZM50.51 4.66Q50.25 4.66 50.08 4.50Q49.92 4.34 49.92 4.07L49.92 4.07Q49.92 3.81 50.08 3.65Q50.25 3.49 50.51 3.49L50.51 3.49Q50.78 3.49 50.94 3.65Q51.10 3.81 51.10 4.07L51.10 4.07Q51.10 4.34 50.94 4.50Q50.78 4.66 50.51 4.66L50.51 4.66ZM50.86 6.02L50.86 13.02L50.16 13.02L50.16 6.02L50.86 6.02ZM56.25 5.88Q57.81 5.88 58.69 6.85Q59.58 7.83 59.58 9.52L59.58 9.52Q59.58 11.21 58.69 12.19Q57.81 13.16 56.25 13.16L56.25 13.16Q54.70 13.16 53.81 12.19Q52.92 11.21 52.92 9.52L52.92 9.52Q52.92 7.83 53.81 6.85Q54.70 5.88 56.25 5.88L56.25 5.88ZM56.25 6.48Q55.02 6.48 54.32 7.29Q53.62 8.11 53.62 9.52L53.62 9.52Q53.62 10.93 54.32 11.75Q55.02 12.56 56.25 12.56L56.25 12.56Q57.48 12.56 58.18 11.75Q58.88 10.93 58.88 9.52L58.88 9.52Q58.88 8.11 58.18 7.29Q57.48 6.48 56.25 6.48L56.25 6.48Z"></path></g><!----><g data-v-423bf9ae="" id="0fa81c6d-7149-4bfd-9c76-523a4368b320" transform="matrix(1.0222222222222221,0,0,1.0222222222222221,-3.111111111111107,-3.111111111111107)" stroke="none" fill="white"><path d="M56.593 48H52V32.876h12.541a2 2 0 000-4H52v-6.632a2 2 0 00-4 0v6.632h-4.593c-6.376 0-11.562 5.187-11.562 11.562C31.845 46.814 37.031 52 43.407 52H48v15.125H33.845a2 2 0 000 4H48v6.629a2 2 0 004 0v-6.629h4.593c6.376 0 11.562-5.187 11.562-11.562S62.969 48 56.593 48zm-13.186 0c-4.17 0-7.562-3.392-7.562-7.561 0-4.17 3.393-7.562 7.562-7.562H48V48h-4.593zm13.186 19.125H52V52h4.593c4.17 0 7.562 3.393 7.562 7.562s-3.392 7.563-7.562 7.563z"></path><path d="M50 4C24.636 4 4 24.636 4 50s20.636 46 46 46 46-20.636 46-46S75.364 4 50 4zm0 88C26.841 92 8 73.159 8 50S26.841 8 50 8s42 18.841 42 42-18.841 42-42 42z"></path></g><!----></svg>